<mxfile host="Electron" agent="Mozilla/5.0 (X11; Linux x86_64) AppleWebKit/537.36 (KHTML, like Gecko) draw.io/24.7.17 Chrome/128.0.6613.36 Electron/32.0.1 Safari/537.36" version="24.7.17">
  <diagram id="C5RBs43oDa-KdzZeNtuy" name="Page-1">
    <mxGraphModel dx="1516" dy="2106" grid="1" gridSize="10" guides="1" tooltips="1" connect="1" arrows="1" fold="1" page="1" pageScale="1" pageWidth="827" pageHeight="1169" math="0" shadow="0">
      <root>
        <mxCell id="WIyWlLk6GJQsqaUBKTNV-0" />
        <mxCell id="WIyWlLk6GJQsqaUBKTNV-1" parent="WIyWlLk6GJQsqaUBKTNV-0" />
        <mxCell id="tKUsyt5CqzJrNAVabc9H-11" value="" style="edgeStyle=orthogonalEdgeStyle;rounded=0;orthogonalLoop=1;jettySize=auto;html=1;entryX=0.5;entryY=0;entryDx=0;entryDy=0;endArrow=none;endFill=0;" parent="WIyWlLk6GJQsqaUBKTNV-1" source="tKUsyt5CqzJrNAVabc9H-0" target="tKUsyt5CqzJrNAVabc9H-1" edge="1">
          <mxGeometry relative="1" as="geometry" />
        </mxCell>
        <mxCell id="tKUsyt5CqzJrNAVabc9H-0" value="&lt;p style=&quot;line-height: 1 ; font-size: 10px&quot;&gt;Начало&lt;/p&gt;" style="shape=stencil(vZXxboMgEMafhj9dUNwDLG57j9NelRTBIKv27YegWdHq1s3OmJD7Dn/3nZyRsKytoEGSUAk1EvZKkiTHkku7WrHySkp92PkwnmJoGyyMF8+gOeQCfaY1Wp2w4wczIrisUHMzZNkboS92z3CzrFBSWghXsg0yV3kLAy7ts7T3sLH8JYgay6/RoB5NepUk7z/HPj0/Bhw/yG+Indzv7nc/cOg4ftTB7QaOf49lmVXWhptlORSnUqsPebhp5siFKJRQ2oZ+dbVIwuh4bTfTwPDhLRJTulZn/OpydizpJntCgC5WCWOkZ1l9CWMBusTIgqKjgDJ4m22H2CzlPoKet5FWBoaXGlTbtiu4vOo4vm34jo7nhPQPPdN/6fmuU3bTuxgip65Mrp1ZpfGbkfa/hY2qqxtc6UUFp/o/mBM+AQ==);whiteSpace=wrap;html=1;aspect=fixed;fontFamily=Helvetica;fontSize=10;spacingBottom=4;" parent="WIyWlLk6GJQsqaUBKTNV-1" vertex="1">
          <mxGeometry x="308" y="-1140" width="210" height="60" as="geometry" />
        </mxCell>
        <mxCell id="tKUsyt5CqzJrNAVabc9H-12" value="" style="edgeStyle=orthogonalEdgeStyle;rounded=0;orthogonalLoop=1;jettySize=auto;html=1;endArrow=none;endFill=0;" parent="WIyWlLk6GJQsqaUBKTNV-1" source="tKUsyt5CqzJrNAVabc9H-1" target="tKUsyt5CqzJrNAVabc9H-5" edge="1">
          <mxGeometry relative="1" as="geometry" />
        </mxCell>
        <mxCell id="tKUsyt5CqzJrNAVabc9H-1" value="&lt;p style=&quot;line-height: 1&quot;&gt;Поле скорости, &lt;br&gt;поле скорости в предыущий момент, распределнение плотности, &lt;br&gt;предыдщее распределние плотности,&lt;br&gt;&amp;nbsp;временной интервал&lt;br&gt;&lt;/p&gt;" style="shape=stencil(tZRtboQgEIZPw99GYXuAxrb3mMXZShbBAN1tb78jaLvWjzZWjQmZd/CZF0ZgovAVNMh4ZqBGJp4Z5yUEoIG0KgmHLIXXFOZ9DL5BGZJ4AafgqDFlfHD2jFdVhg6hTIVOhTYrXlj2RHPaVxTSGkMQZY0fZO7yBANl6NvsI8G68p+DqCF+jQFdZzKpjL/+HfvwuA8438nvENu739zvduCh43yvxm0GztdjRUHK3M8tiiPI85uz76acNHNSWkurraMwjbEW4yLrnuXFNNAevFGiT9f2gt+rnD5P0+ieoJW5I3zdCP9A/HBxWMFYQ5DaelzYSdJHmxnVmQ5S76zDX1qbrseFqrMTYulRhaimizwKNw==);whiteSpace=wrap;html=1;aspect=fixed;fontFamily=Helvetica;fontSize=10;spacingBottom=4;" parent="WIyWlLk6GJQsqaUBKTNV-1" vertex="1">
          <mxGeometry x="291" y="-1050" width="245" height="70" as="geometry" />
        </mxCell>
        <mxCell id="tKUsyt5CqzJrNAVabc9H-8" value="" style="edgeStyle=orthogonalEdgeStyle;rounded=0;orthogonalLoop=1;jettySize=auto;html=1;fontFamily=Helvetica;endArrow=none;endFill=0;" parent="WIyWlLk6GJQsqaUBKTNV-1" source="tKUsyt5CqzJrNAVabc9H-5" target="tKUsyt5CqzJrNAVabc9H-7" edge="1">
          <mxGeometry relative="1" as="geometry" />
        </mxCell>
        <mxCell id="tKUsyt5CqzJrNAVabc9H-5" value="Вычислить изменение поля скорости" style="shape=stencil(tVVRboQgED0Nvw1Ce4DGtvdg2Wkli0CA7ra37wiSrFHcdqvGxMx78uYN4yDhbeiEA8KoET0Q/kIYcx6ctxJCwACZLsOPNIeXHDYlFsGBjBk8C6/EQUNmQvT2BBd1jKOEMh14FQeWvxL6jO8MN2+lNQZFlDVhwlzxKCaUwbX0K4uN6b8nkUP9HiL40WRGCXv7vezD0z7CzU5+p7LF/eZ+txOeOm72atxmws39srxFpPZx8/Yg5OnD209zXDTzrrSWVluPYX6mXIRxOl7rxTgxDN6MKLQfxnZ9nG6Mfi0x4rPcCa0UjKVaDzd2Ip8m95fb2zNcNXWx3mXpoqCVqSus70nFBP+/C/4XG8utKVx1h9OyWYsSmn8fCfgB);whiteSpace=wrap;html=1;aspect=fixed;fontFamily=Helvetica;fontSize=10;spacingBottom=4;rounded=0;shadow=0;sketch=0;spacingLeft=10;spacingRight=10;" parent="WIyWlLk6GJQsqaUBKTNV-1" vertex="1">
          <mxGeometry x="308" y="-960" width="210" height="60" as="geometry" />
        </mxCell>
        <mxCell id="tKUsyt5CqzJrNAVabc9H-10" value="" style="edgeStyle=orthogonalEdgeStyle;rounded=0;orthogonalLoop=1;jettySize=auto;html=1;fontFamily=Helvetica;endArrow=none;endFill=0;" parent="WIyWlLk6GJQsqaUBKTNV-1" source="tKUsyt5CqzJrNAVabc9H-7" target="tKUsyt5CqzJrNAVabc9H-9" edge="1">
          <mxGeometry relative="1" as="geometry" />
        </mxCell>
        <mxCell id="tKUsyt5CqzJrNAVabc9H-7" value="Вычислить изменение распределения плотности" style="shape=stencil(tVVRboQgED0Nvw1Ce4DGtvdg2Wkli0CA7ra37wiSrFHcdqvGxMx78uYN4yDhbeiEA8KoET0Q/kIYcx6ctxJCwACZLsOPNIeXHDYlFsGBjBk8C6/EQUNmQvT2BBd1jKOEMh14FQeWvxL6jO8MN2+lNQZFlDVhwlzxKCaUwbX0K4uN6b8nkUP9HiL40WRGCXv7vezD0z7CzU5+p7LF/eZ+txOeOm72atxmws39srxFpPZx8/Yg5OnD209zXDTzrrSWVluPYX6mXIRxOl7rxTgxDN6MKLQfxnZ9nG6Mfi0x4rPcCa0UjKVaDzd2Ip8m95fb2zNcNXWx3mXpoqCVqSus70nFBP+/C/4XG8utKVx1h9OyWYsSmn8fCfgB);whiteSpace=wrap;html=1;aspect=fixed;fontFamily=Helvetica;fontSize=10;spacingBottom=4;rounded=0;shadow=0;sketch=0;spacingLeft=10;spacingRight=10;" parent="WIyWlLk6GJQsqaUBKTNV-1" vertex="1">
          <mxGeometry x="308" y="-860" width="210" height="60" as="geometry" />
        </mxCell>
        <mxCell id="tKUsyt5CqzJrNAVabc9H-9" value="&lt;p style=&quot;line-height: 1 ; font-size: 10px&quot;&gt;Конец&lt;/p&gt;" style="shape=stencil(vZVhboMwDIVPk59MgbADTGy7h0tdiBoSFLJCb7+QgNZAYesGQwj07PD5mRhBWNaUUCNJqIQKCXslSYLyaK82VHqdUi9bL+NRQ1NjbnzwAprDQaDPNEarM7b8aAYElyVqbvoseyP0xa7pT5blSkoL4Uo2QeYmb2HApX2Wdh42lL8Gqrb8Cg3qwaSPkuT959in533A8U5+Q+zofnO/24FDx/FeG7cZOP49lmU2sjTcLDtAfi60+rBf2j0zJy5EroTSVvq7q0USRodjvZka+g9vlhjTlbrgV5eTbUlX2SMCdL5IGJSeZPU11AJ0gZEFRScBRfA2mxaxnoe7CDreRFoZ6F9qUG3druDypuP4vuEHOp4S0j/0TP+l54d22U3vbIhcdGFy7cwqjd+MtP8trFRdXOBKzyq4qP9/ucAn);whiteSpace=wrap;html=1;aspect=fixed;fontFamily=Helvetica;fontSize=10;spacingBottom=4;" parent="WIyWlLk6GJQsqaUBKTNV-1" vertex="1">
          <mxGeometry x="307" y="-770" width="212" height="60.57" as="geometry" />
        </mxCell>
      </root>
    </mxGraphModel>
  </diagram>
</mxfile>
